RobotoSerifText-SuperCond 01r.ufo
<glyph name="quotesingle" format="2">
  <advance width="220"/>
  <unicode hex="0027"/>
  <outline>
    <contour>
      <point x="188.0" y="710.0" type="line"/>
      <point x="188.0" y="616.0"/>
      <point x="165.0" y="586.0"/>
      <point x="165.0" y="446.0" type="curve"/>
      <point x="56.0" y="446.0" type="line"/>
      <point x="56.0" y="586.0"/>
      <point x="33.0" y="615.0"/>
      <point x="33.0" y="710.0" type="curve"/>
    </contour>
  </outline>
</glyph>
<glyph name="period" format="2">
  <advance width="312"/>
  <unicode hex="002E"/>
  <outline>
    <contour>
      <point x="156.0" y="-15.0" type="curve" smooth="yes"/>
      <point x="231.0" y="-15.0"/>
      <point x="274.0" y="29.0"/>
      <point x="274.0" y="94.0" type="curve" smooth="yes"/>
      <point x="274.0" y="158.0"/>
      <point x="231.0" y="202.0"/>
      <point x="156.0" y="202.0" type="curve" smooth="yes"/>
      <point x="81.0" y="202.0"/>
      <point x="39.0" y="158.0"/>
      <point x="39.0" y="94.0" type="curve" smooth="yes"/>
      <point x="39.0" y="29.0"/>
      <point x="81.0" y="-15.0"/>
    </contour>
  </outline>
</glyph>
<glyph name="slash" format="2">
  <advance width="431"/>
  <unicode hex="002F"/>
  <outline>
    <contour>
      <point x="438.0" y="733.0" type="line"/>
      <point x="141.0" y="-147.0" type="line"/>
      <point x="-7.0" y="-147.0" type="line"/>
      <point x="290.0" y="733.0" type="line"/>
    </contour>
  </outline>
</glyph>
<glyph name="one" format="2">
  <advance width="471"/>
  <unicode hex="0031"/>
  <outline>
    <contour>
      <point x="378.0" y="122.0" type="curve" smooth="yes"/>
      <point x="378.0" y="609.0" type="line"/>
      <point x="185.0" y="609.0" type="line"/>
      <point x="157.0" y="561.0"/>
      <point x="124.0" y="533.0"/>
      <point x="26.0" y="532.0" type="curve"/>
      <point x="26.0" y="413.0" type="line"/>
      <point x="106.0" y="412.0"/>
      <point x="149.0" y="437.0"/>
      <point x="174.0" y="521.0" type="curve"/>
      <point x="156.0" y="513.0" type="line"/>
      <point x="156.0" y="122.0" type="line" smooth="yes"/>
      <point x="156.0" y="84.0"/>
      <point x="112.0" y="77.0"/>
      <point x="64.0" y="77.0" type="curve" smooth="yes"/>
      <point x="44.0" y="77.0" type="line"/>
      <point x="44.0" y="0.0" type="line"/>
      <point x="477.0" y="0.0" type="line"/>
      <point x="477.0" y="77.0" type="line"/>
      <point x="468.0" y="77.0" type="line" smooth="yes"/>
      <point x="416.0" y="77.0"/>
      <point x="378.0" y="84.0"/>
    </contour>
  </outline>
</glyph>
<glyph name="two" format="2">
  <advance width="471"/>
  <unicode hex="0032"/>
  <outline>
    <contour>
      <point x="272.0" y="147.0" type="line" smooth="yes"/>
      <point x="334.0" y="147.0"/>
      <point x="356.0" y="151.0"/>
      <point x="362.0" y="187.0" type="curve" smooth="yes"/>
      <point x="368.0" y="236.0" type="line"/>
      <point x="451.0" y="236.0" type="line"/>
      <point x="451.0" y="0.0" type="line"/>
      <point x="11.0" y="0.0" type="line"/>
      <point x="11.0" y="160.0" type="line"/>
      <point x="142.0" y="248.0"/>
      <point x="227.0" y="301.0"/>
      <point x="227.0" y="439.0" type="curve" smooth="yes"/>
      <point x="227.0" y="500.0"/>
      <point x="217.0" y="528.0"/>
      <point x="191.0" y="528.0" type="curve" smooth="yes"/>
      <point x="172.0" y="528.0"/>
      <point x="162.0" y="506.0"/>
      <point x="152.0" y="481.0" type="curve"/>
      <point x="147.0" y="488.0"/>
      <point x="145.0" y="535.0"/>
      <point x="173.0" y="538.0" type="curve"/>
      <point x="173.0" y="413.0" type="line"/>
      <point x="14.0" y="413.0" type="line"/>
      <point x="14.0" y="543.0" type="line"/>
      <point x="54.0" y="581.0"/>
      <point x="125.0" y="618.0"/>
      <point x="224.0" y="618.0" type="curve" smooth="yes"/>
      <point x="369.0" y="618.0"/>
      <point x="442.0" y="550.0"/>
      <point x="442.0" y="439.0" type="curve" smooth="yes"/>
      <point x="442.0" y="278.0"/>
      <point x="254.0" y="190.0"/>
      <point x="107.0" y="125.0" type="curve"/>
      <point x="88.0" y="120.0"/>
      <point x="95.0" y="141.0"/>
      <point x="96.0" y="147.0" type="curve"/>
    </contour>
  </outline>
</glyph>
<glyph name="three" format="2">
  <advance width="471"/>
  <unicode hex="0033"/>
  <outline>
    <contour>
      <point x="189.0" y="295.0" type="line"/>
      <point x="386.0" y="295.0"/>
      <point x="468.0" y="226.0"/>
      <point x="468.0" y="114.0" type="curve"/>
      <point x="468.0" y="-20.0"/>
      <point x="362.0" y="-90.0"/>
      <point x="234.0" y="-90.0" type="curve" smooth="yes"/>
      <point x="92.0" y="-90.0"/>
      <point x="34.0" y="-15.0"/>
      <point x="8.0" y="74.0" type="curve"/>
      <point x="91.0" y="128.0" type="line"/>
      <point x="109.0" y="76.0"/>
      <point x="134.0" y="4.0"/>
      <point x="192.0" y="4.0" type="curve" smooth="yes"/>
      <point x="237.0" y="4.0"/>
      <point x="257.0" y="45.0"/>
      <point x="257.0" y="121.0" type="curve" smooth="yes"/>
      <point x="257.0" y="190.0"/>
      <point x="248.0" y="240.0"/>
      <point x="173.0" y="240.0" type="curve" smooth="yes"/>
      <point x="140.0" y="240.0" type="line"/>
      <point x="140.0" y="327.0" type="line"/>
      <point x="163.0" y="327.0" type="line" smooth="yes"/>
      <point x="230.0" y="327.0"/>
      <point x="251.0" y="364.0"/>
      <point x="251.0" y="448.0" type="curve" smooth="yes"/>
      <point x="251.0" y="505.0"/>
      <point x="242.0" y="528.0"/>
      <point x="221.0" y="528.0" type="curve" smooth="yes"/>
      <point x="201.0" y="528.0"/>
      <point x="187.0" y="507.0"/>
      <point x="178.0" y="483.0" type="curve"/>
      <point x="173.0" y="490.0"/>
      <point x="171.0" y="536.0"/>
      <point x="199.0" y="539.0" type="curve"/>
      <point x="199.0" y="423.0" type="line"/>
      <point x="40.0" y="423.0" type="line"/>
      <point x="40.0" y="543.0" type="line"/>
      <point x="80.0" y="582.0"/>
      <point x="149.0" y="618.0"/>
      <point x="245.0" y="618.0" type="curve" smooth="yes"/>
      <point x="358.0" y="618.0"/>
      <point x="455.0" y="567.0"/>
      <point x="455.0" y="451.0" type="curve" smooth="yes"/>
      <point x="455.0" y="330.0"/>
      <point x="330.0" y="277.0"/>
      <point x="173.0" y="277.0" type="curve"/>
      <point x="233.0" y="309.0" type="line"/>
      <point x="233.0" y="265.0" type="line"/>
    </contour>
  </outline>
</glyph>
<glyph name="question" format="2">
  <advance width="506"/>
  <unicode hex="003F"/>
  <outline>
    <contour>
      <point x="176.0" y="390.0" type="line"/>
      <point x="241.0" y="421.0"/>
      <point x="274.0" y="473.0"/>
      <point x="274.0" y="549.0" type="curve" smooth="yes"/>
      <point x="274.0" y="596.0"/>
      <point x="263.0" y="629.0"/>
      <point x="223.0" y="629.0" type="curve" smooth="yes"/>
      <point x="207.0" y="629.0"/>
      <point x="186.0" y="616.0"/>
      <point x="169.0" y="589.0" type="curve"/>
      <point x="155.0" y="612.0"/>
      <point x="171.0" y="625.0"/>
      <point x="190.0" y="630.0" type="curve"/>
      <point x="190.0" y="527.0" type="line"/>
      <point x="20.0" y="527.0" type="line"/>
      <point x="20.0" y="644.0" type="line"/>
      <point x="50.0" y="676.0"/>
      <point x="128.0" y="723.0"/>
      <point x="249.0" y="723.0" type="curve" smooth="yes"/>
      <point x="418.0" y="723.0"/>
      <point x="491.0" y="646.0"/>
      <point x="491.0" y="537.0" type="curve" smooth="yes"/>
      <point x="491.0" y="409.0"/>
      <point x="381.0" y="360.0"/>
      <point x="289.0" y="335.0" type="curve"/>
      <point x="289.0" y="255.0" type="line"/>
      <point x="176.0" y="255.0" type="line"/>
    </contour>
    <component base="period" xOffset="76"/>
  </outline>
</glyph>
<glyph name="D" format="2">
  <advance width="701"/>
  <unicode hex="0044"/>
  <anchor x="353" y="741" name="top"/>
  <anchor x="353" y="0" name="bottom"/>
  <outline>
    <contour>
      <point x="14.0" y="633.0" type="line"/>
      <point x="24.0" y="633.0" type="line" smooth="yes"/>
      <point x="40.0" y="633.0"/>
      <point x="52.0" y="624.0"/>
      <point x="52.0" y="597.0" type="curve" smooth="yes"/>
      <point x="52.0" y="113.0" type="line" smooth="yes"/>
      <point x="52.0" y="84.0"/>
      <point x="40.0" y="77.0"/>
      <point x="24.0" y="77.0" type="curve" smooth="yes"/>
      <point x="14.0" y="77.0" type="line"/>
      <point x="14.0" y="0.0" type="line"/>
      <point x="336.0" y="0.0" type="line" smooth="yes"/>
      <point x="537.0" y="0.0"/>
      <point x="681.0" y="132.0"/>
      <point x="681.0" y="357.0" type="curve" smooth="yes"/>
      <point x="681.0" y="583.0"/>
      <point x="537.0" y="710.0"/>
      <point x="336.0" y="710.0" type="curve" smooth="yes"/>
      <point x="14.0" y="710.0" type="line"/>
    </contour>
    <contour>
      <point x="324.0" y="622.0" type="line" smooth="yes"/>
      <point x="380.0" y="622.0"/>
      <point x="425.0" y="527.0"/>
      <point x="425.0" y="357.0" type="curve" smooth="yes"/>
      <point x="425.0" y="187.0"/>
      <point x="380.0" y="88.0"/>
      <point x="324.0" y="88.0" type="curve" smooth="yes"/>
      <point x="299.0" y="88.0" type="line"/>
      <point x="299.0" y="622.0" type="line"/>
    </contour>
  </outline>
</glyph>
<glyph name="M" format="2">
  <advance width="783"/>
  <unicode hex="004D"/>
  <anchor x="390.0" y="0" name="bottom"/>
  <outline>
    <contour>
      <point x="14.0" y="0.0" type="line"/>
      <point x="180.0" y="0.0" type="line"/>
      <point x="180.0" y="77.0" type="line"/>
      <point x="172.0" y="77.0" type="line" smooth="yes"/>
      <point x="156.0" y="77.0"/>
      <point x="141.0" y="80.0"/>
      <point x="141.0" y="87.0" type="curve" smooth="yes"/>
      <point x="141.0" y="688.0" type="line"/>
      <point x="124.0" y="687.0" type="line"/>
      <point x="262.0" y="-2.0" type="line"/>
      <point x="373.0" y="-2.0" type="line"/>
      <point x="509.0" y="686.0" type="line"/>
      <point x="494.0" y="688.0" type="line"/>
      <point x="494.0" y="87.0" type="line" smooth="yes"/>
      <point x="494.0" y="80.0"/>
      <point x="478.0" y="77.0"/>
      <point x="462.0" y="77.0" type="curve" smooth="yes"/>
      <point x="455.0" y="77.0" type="line"/>
      <point x="455.0" y="0.0" type="line"/>
      <point x="768.0" y="0.0" type="line"/>
      <point x="768.0" y="77.0" type="line"/>
      <point x="757.0" y="77.0" type="line" smooth="yes"/>
      <point x="742.0" y="77.0"/>
      <point x="731.0" y="82.0"/>
      <point x="731.0" y="103.0" type="curve" smooth="yes"/>
      <point x="731.0" y="607.0" type="line" smooth="yes"/>
      <point x="731.0" y="628.0"/>
      <point x="742.0" y="633.0"/>
      <point x="757.0" y="633.0" type="curve" smooth="yes"/>
      <point x="768.0" y="633.0" type="line"/>
      <point x="768.0" y="710.0" type="line"/>
      <point x="433.0" y="710.0" type="line"/>
      <point x="373.0" y="332.0" type="line"/>
      <point x="410.0" y="247.0" type="line"/>
      <point x="343.0" y="710.0" type="line"/>
      <point x="14.0" y="710.0" type="line"/>
      <point x="14.0" y="633.0" type="line"/>
      <point x="25.0" y="633.0" type="line" smooth="yes"/>
      <point x="40.0" y="633.0"/>
      <point x="51.0" y="628.0"/>
      <point x="51.0" y="607.0" type="curve" smooth="yes"/>
      <point x="51.0" y="103.0" type="line" smooth="yes"/>
      <point x="51.0" y="82.0"/>
      <point x="40.0" y="77.0"/>
      <point x="25.0" y="77.0" type="curve" smooth="yes"/>
      <point x="14.0" y="77.0" type="line"/>
    </contour>
  </outline>
</glyph>
<glyph name="R" format="2">
  <advance width="631"/>
  <unicode hex="0052"/>
  <anchor x="390.0" y="741" name="top"/>
  <anchor x="390.0" y="0" name="bottom"/>
  <outline>
    <contour>
      <point x="323.0" y="311.0" type="line"/>
      <point x="534.0" y="358.0" type="line"/>
      <point x="588" y="97" type="line" smooth="yes"/>
      <point x="591.0" y="83.0"/>
      <point x="598" y="77.0"/>
      <point x="612.0" y="77.0" type="curve" smooth="yes"/>
      <point x="619.0" y="77.0" type="line"/>
      <point x="619.0" y="0.0" type="line"/>
      <point x="369.0" y="1.0" type="line"/>
    </contour>
    <contour>
      <point x="289.0" y="87.0" type="line" smooth="yes"/>
      <point x="289.0" y="80.0"/>
      <point x="300.0" y="77.0"/>
      <point x="313.0" y="77.0" type="curve" smooth="yes"/>
      <point x="320.0" y="77.0" type="line"/>
      <point x="320.0" y="0.0" type="line"/>
      <point x="14.0" y="0.0" type="line"/>
      <point x="14.0" y="77.0" type="line"/>
      <point x="26.0" y="77.0" type="line"/>
      <point x="41.0" y="77.0"/>
      <point x="52.0" y="82.0"/>
      <point x="52.0" y="103.0" type="curve" smooth="yes"/>
      <point x="52.0" y="607.0" type="line" smooth="yes"/>
      <point x="52.0" y="628.0"/>
      <point x="41.0" y="633.0"/>
      <point x="26.0" y="633.0" type="curve"/>
      <point x="14.0" y="633.0" type="line"/>
      <point x="14.0" y="710.0" type="line"/>
      <point x="388.0" y="710.0" type="line" smooth="yes"/>
      <point x="539.0" y="710.0"/>
      <point x="603.0" y="650.0"/>
      <point x="603.0" y="503.0" type="curve" smooth="yes"/>
      <point x="603.0" y="382.0"/>
      <point x="548.0" y="307.0"/>
      <point x="425.0" y="289.0" type="curve" smooth="yes"/>
      <point x="404.0" y="286.0"/>
      <point x="361.0" y="281.0"/>
      <point x="360.0" y="281.0" type="curve" smooth="yes"/>
      <point x="272.0" y="281.0" type="line"/>
      <point x="272.0" y="366.0" type="line"/>
      <point x="324.0" y="366.0" type="line" smooth="yes"/>
      <point x="356.0" y="366.0"/>
      <point x="364.0" y="392.0"/>
      <point x="364.0" y="503.0" type="curve" smooth="yes"/>
      <point x="364.0" y="604.0"/>
      <point x="357.0" y="624.0"/>
      <point x="329.0" y="624.0" type="curve" smooth="yes"/>
      <point x="289.0" y="624.0" type="line"/>
    </contour>
  </outline>
</glyph>
<glyph name="V" format="2">
  <advance width="603"/>
  <unicode hex="0056"/>
  <outline>
    <contour>
      <point x="403.0" y="69.0" type="line"/>
      <point x="276.0" y="623.0" type="line"/>
      <point x="276.0" y="630.0"/>
      <point x="291.0" y="633.0"/>
      <point x="304.0" y="633.0" type="curve" smooth="yes"/>
      <point x="318.0" y="633.0" type="line"/>
      <point x="318.0" y="710.0" type="line"/>
      <point x="9.0" y="710.0" type="line"/>
      <point x="9.0" y="633.0" type="line"/>
      <point x="13.0" y="633.0" type="line" smooth="yes"/>
      <point x="31.0" y="633.0"/>
      <point x="41.0" y="628.0"/>
      <point x="47.0" y="605.0" type="curve" smooth="yes"/>
      <point x="197.0" y="0.0" type="line"/>
      <point x="410.0" y="0.0" type="line"/>
      <point x="556.0" y="590.0" type="line" smooth="yes"/>
      <point x="564.0" y="624.0"/>
      <point x="571.0" y="633.0"/>
      <point x="590.0" y="633.0" type="curve" smooth="yes"/>
      <point x="594.0" y="633.0" type="line"/>
      <point x="594.0" y="710.0" type="line"/>
      <point x="433.0" y="710.0" type="line"/>
      <point x="433.0" y="633.0" type="line"/>
      <point x="443.0" y="633.0" type="line" smooth="yes"/>
      <point x="456.0" y="633.0"/>
      <point x="471.0" y="626.0"/>
      <point x="471.0" y="615.0" type="curve"/>
      <point x="360.0" y="126.0" type="line"/>
    </contour>
  </outline>
</glyph>
<glyph name="W" format="2">
  <advance width="873"/>
  <unicode hex="0057"/>
  <anchor x="451" y="741" name="top"/>
  <outline>
    <contour>
      <point x="9.0" y="710.0" type="line"/>
      <point x="9.0" y="633.0" type="line"/>
      <point x="15.0" y="633.0" type="line" smooth="yes"/>
      <point x="31.0" y="633.0"/>
      <point x="44.0" y="627.0"/>
      <point x="47.0" y="604.0" type="curve" smooth="yes"/>
      <point x="136.0" y="0.0" type="line"/>
      <point x="375.0" y="0.0" type="line"/>
      <point x="460.0" y="555.0" type="line"/>
      <point x="445.0" y="556.0" type="line"/>
      <point x="514.0" y="0.0" type="line"/>
      <point x="739.0" y="0.0" type="line"/>
      <point x="826.0" y="590.0" type="line" smooth="yes"/>
      <point x="831.0" y="623.0"/>
      <point x="841.0" y="633.0"/>
      <point x="859.0" y="633.0" type="curve" smooth="yes"/>
      <point x="864.0" y="633.0" type="line"/>
      <point x="864.0" y="710.0" type="line"/>
      <point x="709.0" y="710.0" type="line"/>
      <point x="709.0" y="633.0" type="line"/>
      <point x="722.0" y="633.0" type="line" smooth="yes"/>
      <point x="732.0" y="633.0"/>
      <point x="743.0" y="626.0"/>
      <point x="743.0" y="615.0" type="curve"/>
      <point x="693.0" y="166.0" type="line"/>
      <point x="707.0" y="167.0" type="line"/>
      <point x="635.0" y="710.0" type="line"/>
      <point x="416.0" y="710.0" type="line"/>
      <point x="327.0" y="159.0" type="line"/>
      <point x="341.0" y="163.0" type="line"/>
      <point x="301.0" y="623.0" type="line"/>
      <point x="301.0" y="630.0"/>
      <point x="313.0" y="633.0"/>
      <point x="324.0" y="633.0" type="curve" smooth="yes"/>
      <point x="336.0" y="633.0" type="line"/>
      <point x="336.0" y="710.0" type="line"/>
    </contour>
  </outline>
</glyph>
<glyph name="p" format="2">
  <advance width="589"/>
  <unicode hex="0070"/>
  <outline>
    <contour>
      <point x="303.0" y="-223.0" type="line"/>
      <point x="303.0" y="-151.0" type="line"/>
      <point x="305.0" y="-151.0" type="line"/>
      <point x="288.0" y="-151.0"/>
      <point x="263.0" y="-149.0"/>
      <point x="263.0" y="-143.0" type="curve" smooth="yes"/>
      <point x="263.0" y="376.0" type="line"/>
      <point x="251.0" y="373.0" type="line"/>
      <point x="251.0" y="513.0" type="line"/>
      <point x="10.0" y="513.0" type="line"/>
      <point x="10.0" y="438.0" type="line"/>
      <point x="16.0" y="436.0" type="line" smooth="yes"/>
      <point x="28.0" y="429.0"/>
      <point x="31.0" y="425.0"/>
      <point x="31.0" y="407.0" type="curve" smooth="yes"/>
      <point x="31.0" y="-124.0" type="line" smooth="yes"/>
      <point x="31.0" y="-145.0"/>
      <point x="22.0" y="-151.0"/>
      <point x="11.0" y="-151.0" type="curve" smooth="yes"/>
      <point x="10.0" y="-151.0" type="line"/>
      <point x="10.0" y="-223.0" type="line"/>
    </contour>
    <contour>
      <point x="373.0" y="-10.0" type="curve" smooth="yes"/>
      <point x="487.0" y="-10.0"/>
      <point x="569.0" y="103.0"/>
      <point x="569.0" y="263.0" type="curve" smooth="yes"/>
      <point x="569.0" y="419.0"/>
      <point x="496.0" y="523.0"/>
      <point x="380.0" y="523.0" type="curve" smooth="yes"/>
      <point x="313.0" y="523.0"/>
      <point x="276.0" y="486.0"/>
      <point x="242.0" y="414.0" type="curve"/>
      <point x="242.0" y="296.0" type="line"/>
      <point x="262.0" y="369.0"/>
      <point x="273.0" y="416.0"/>
      <point x="300.0" y="416.0" type="curve" smooth="yes"/>
      <point x="324.0" y="416.0"/>
      <point x="333.0" y="363.0"/>
      <point x="333.0" y="263.0" type="curve" smooth="yes"/>
      <point x="333.0" y="161.0"/>
      <point x="324.0" y="97.0"/>
      <point x="293.0" y="97.0" type="curve" smooth="yes"/>
      <point x="261.0" y="97.0"/>
      <point x="254.0" y="142.0"/>
      <point x="242.0" y="202.0" type="curve"/>
      <point x="242.0" y="58.0" type="line"/>
      <point x="271.0" y="11.0"/>
      <point x="314.0" y="-10.0"/>
    </contour>
  </outline>
</glyph>
<glyph name="r" format="2">
  <advance width="419"/>
  <unicode hex="0072"/>
  <anchor x="231" y="513" name="top"/>
  <anchor x="166" y="0" name="bottom"/>
  <outline>
    <contour>
      <point x="401.0" y="512.0" type="line"/>
      <point x="395.0" y="515.0"/>
      <point x="384.0" y="518.0"/>
      <point x="366.0" y="518.0" type="curve" smooth="yes"/>
      <point x="282.0" y="518.0"/>
      <point x="263.0" y="458.0"/>
      <point x="246.0" y="328.0" type="curve"/>
      <point x="241.0" y="269.0" type="line"/>
      <point x="259.0" y="323.0"/>
      <point x="301.0" y="328.0"/>
      <point x="347.0" y="328.0" type="curve" smooth="yes"/>
      <point x="367.0" y="328.0"/>
      <point x="386.0" y="324.0"/>
      <point x="400.0" y="320.0" type="curve"/>
    </contour>
    <contour>
      <point x="10.0" y="0.0" type="line"/>
      <point x="302.0" y="0.0" type="line"/>
      <point x="302.0" y="72.0" type="line"/>
      <point x="303.0" y="72.0" type="line"/>
      <point x="285.0" y="72.0"/>
      <point x="263" y="74"/>
      <point x="263.0" y="80" type="curve" smooth="yes"/>
      <point x="263.0" y="342.0" type="line"/>
      <point x="250.0" y="345.0" type="line"/>
      <point x="250.0" y="513.0" type="line"/>
      <point x="10.0" y="513.0" type="line"/>
      <point x="10.0" y="438.0" type="line"/>
      <point x="15.0" y="436.0" type="line" smooth="yes"/>
      <point x="27" y="431"/>
      <point x="30" y="427"/>
      <point x="30.0" y="417" type="curve" smooth="yes"/>
      <point x="30.0" y="89.0" type="line" smooth="yes"/>
      <point x="30" y="76"/>
      <point x="21.0" y="72.0"/>
      <point x="10.0" y="72.0" type="curve" smooth="yes"/>
      <point x="10.0" y="72.0" type="line"/>
    </contour>
  </outline>
</glyph>
<glyph name="currency" format="2">
  <advance width="471"/>
  <unicode hex="00A4"/>
  <outline>
    <contour>
      <point x="283.0" y="373.0" type="curve" smooth="yes"/>
      <point x="283.0" y="324.0"/>
      <point x="265.0" y="291.0"/>
      <point x="235.0" y="291.0" type="curve" smooth="yes"/>
      <point x="205.0" y="291.0"/>
      <point x="188.0" y="324.0"/>
      <point x="188.0" y="373.0" type="curve" smooth="yes"/>
      <point x="188.0" y="422.0"/>
      <point x="205.0" y="455.0"/>
      <point x="235.0" y="455.0" type="curve" smooth="yes"/>
      <point x="265.0" y="455.0"/>
      <point x="283.0" y="422.0"/>
    </contour>
    <contour>
      <point x="45.0" y="373.0" type="curve" smooth="yes"/>
      <point x="45.0" y="245.0"/>
      <point x="128.0" y="153.0"/>
      <point x="235.0" y="153.0" type="curve" smooth="yes"/>
      <point x="345.0" y="153.0"/>
      <point x="426.0" y="245.0"/>
      <point x="426.0" y="373.0" type="curve" smooth="yes"/>
      <point x="426.0" y="501.0"/>
      <point x="345.0" y="593.0"/>
      <point x="235.0" y="593.0" type="curve" smooth="yes"/>
      <point x="128.0" y="593.0"/>
      <point x="45.0" y="501.0"/>
    </contour>
    <contour>
      <point x="5.0" y="565.0" type="line"/>
      <point x="98.0" y="456.0" type="line"/>
      <point x="193.0" y="539.0" type="line"/>
      <point x="94.0" y="655.0" type="line"/>
    </contour>
    <contour>
      <point x="466.0" y="565.0" type="line"/>
      <point x="378.0" y="655.0" type="line"/>
      <point x="278.0" y="539.0" type="line"/>
      <point x="373.0" y="456.0" type="line"/>
    </contour>
    <contour>
      <point x="5.0" y="181.0" type="line"/>
      <point x="94.0" y="91.0" type="line"/>
      <point x="193.0" y="207.0" type="line"/>
      <point x="98.0" y="290.0" type="line"/>
    </contour>
    <contour>
      <point x="466.0" y="181.0" type="line"/>
      <point x="373.0" y="290.0" type="line"/>
      <point x="278.0" y="207.0" type="line"/>
      <point x="378.0" y="91.0" type="line"/>
    </contour>
  </outline>
</glyph>
<glyph name="yen" format="2">
  <advance width="471"/>
  <unicode hex="00A5"/>
  <outline>
    <contour>
      <point x="35.0" y="374.0" type="line"/>
      <point x="35.0" y="281.0" type="line"/>
      <point x="440.0" y="281.0" type="line"/>
      <point x="440.0" y="374.0" type="line"/>
    </contour>
    <contour>
      <point x="35.0" y="242.0" type="line"/>
      <point x="35.0" y="149.0" type="line"/>
      <point x="440.0" y="149.0" type="line"/>
      <point x="440.0" y="242.0" type="line"/>
    </contour>
    <contour>
      <point x="118.0" y="375.0" type="line"/>
      <point x="118.0" y="113.0" type="line" smooth="yes"/>
      <point x="118.0" y="84.0"/>
      <point x="106.0" y="77.0"/>
      <point x="90.0" y="77.0" type="curve" smooth="yes"/>
      <point x="78.0" y="77.0" type="line"/>
      <point x="78.0" y="0.0" type="line"/>
      <point x="396.0" y="0.0" type="line"/>
      <point x="396.0" y="77.0" type="line"/>
      <point x="385.0" y="77.0" type="line" smooth="yes"/>
      <point x="369.0" y="77.0"/>
      <point x="357.0" y="84.0"/>
      <point x="357.0" y="113.0" type="curve" smooth="yes"/>
      <point x="357.0" y="375.0" type="line"/>
    </contour>
    <contour>
      <point x="345.0" y="328.0" type="line"/>
      <point x="433.0" y="592.0" type="line" smooth="yes"/>
      <point x="445.0" y="626.0"/>
      <point x="450.0" y="633.0"/>
      <point x="461.0" y="633.0" type="curve" smooth="yes"/>
      <point x="463.0" y="633.0" type="line"/>
      <point x="463.0" y="710.0" type="line"/>
      <point x="338.0" y="710.0" type="line"/>
      <point x="338.0" y="633.0" type="line"/>
      <point x="337.0" y="633.0" type="line" smooth="yes"/>
      <point x="348.0" y="633.0"/>
      <point x="356.0" y="626.0"/>
      <point x="356.0" y="615.0" type="curve"/>
      <point x="283.0" y="382.0" type="line"/>
      <point x="335.0" y="400.0" type="line"/>
      <point x="266.0" y="623.0" type="line"/>
      <point x="266.0" y="630.0"/>
      <point x="271.0" y="633.0"/>
      <point x="281.0" y="633.0" type="curve" smooth="yes"/>
      <point x="284.0" y="633.0" type="line"/>
      <point x="284.0" y="710.0" type="line"/>
      <point x="8.0" y="710.0" type="line"/>
      <point x="8.0" y="633.0" type="line"/>
      <point x="10.0" y="633.0" type="line" smooth="yes"/>
      <point x="19.0" y="633.0"/>
      <point x="24.0" y="629.0"/>
      <point x="31.0" y="607.0" type="curve" smooth="yes"/>
      <point x="132.0" y="330.0" type="line"/>
    </contour>
  </outline>
</glyph>
<glyph name="logicalnot" format="2">
  <advance width="471"/>
  <unicode hex="00AC"/>
  <outline>
    <contour>
      <point x="290.0" y="334.0" type="line"/>
      <point x="290.0" y="134.0" type="line"/>
      <point x="430.0" y="134.0" type="line"/>
      <point x="430.0" y="409.0" type="line"/>
      <point x="41.0" y="409.0" type="line"/>
      <point x="41.0" y="279.0" type="line"/>
      <point x="324.0" y="279.0" type="line"/>
    </contour>
  </outline>
</glyph>
<glyph name="ordmasculine" format="2">
  <advance width="450"/>
  <unicode hex="00BA"/>
  <outline>
    <contour>
      <point x="225.0" y="720.0" type="curve" smooth="yes"/>
      <point x="90.0" y="720.0"/>
      <point x="12.0" y="638.0"/>
      <point x="12.0" y="516.0" type="curve" smooth="yes"/>
      <point x="12.0" y="393.0"/>
      <point x="90.0" y="310.0"/>
      <point x="225.0" y="310.0" type="curve" smooth="yes"/>
      <point x="360.0" y="310.0"/>
      <point x="438.0" y="393.0"/>
      <point x="438.0" y="516.0" type="curve" smooth="yes"/>
      <point x="438.0" y="638.0"/>
      <point x="360.0" y="720.0"/>
    </contour>
    <contour>
      <point x="225.0" y="386.0" type="curve" smooth="yes"/>
      <point x="205.0" y="386.0"/>
      <point x="199.0" y="427.0"/>
      <point x="199.0" y="516.0" type="curve" smooth="yes"/>
      <point x="199.0" y="603.0"/>
      <point x="205.0" y="644.0"/>
      <point x="225.0" y="644.0" type="curve" smooth="yes"/>
      <point x="246.0" y="644.0"/>
      <point x="251.0" y="603.0"/>
      <point x="251.0" y="516.0" type="curve" smooth="yes"/>
      <point x="251.0" y="427.0"/>
      <point x="246.0" y="386.0"/>
    </contour>
  </outline>
</glyph>
<glyph name="Thorn" format="2">
  <advance width="621"/>
  <unicode hex="00DE"/>
  <outline>
    <contour>
      <point x="346.0" y="710.0" type="line"/>
      <point x="346.0" y="633.0" type="line"/>
      <point x="326.0" y="633.0" type="line" smooth="yes"/>
      <point x="314.0" y="633.0"/>
      <point x="299.0" y="630.0"/>
      <point x="299.0" y="623.0" type="curve"/>
      <point x="299.0" y="87.0" type="line" smooth="yes"/>
      <point x="299.0" y="80.0"/>
      <point x="314.0" y="77.0"/>
      <point x="326.0" y="77.0" type="curve" smooth="yes"/>
      <point x="346.0" y="77.0" type="line"/>
      <point x="346.0" y="0.0" type="line"/>
      <point x="14.0" y="0.0" type="line"/>
      <point x="14.0" y="77.0" type="line"/>
      <point x="23.0" y="77.0" type="line" smooth="yes"/>
      <point x="40.0" y="77.0"/>
      <point x="52.0" y="84.0"/>
      <point x="52.0" y="113.0" type="curve" smooth="yes"/>
      <point x="52.0" y="597.0" type="line" smooth="yes"/>
      <point x="52.0" y="626.0"/>
      <point x="40.0" y="633.0"/>
      <point x="23.0" y="633.0" type="curve" smooth="yes"/>
      <point x="14.0" y="633.0" type="line"/>
      <point x="14.0" y="710.0" type="line"/>
    </contour>
    <contour>
      <point x="622.0" y="367.0" type="curve" smooth="yes"/>
      <point x="622.0" y="231.0"/>
      <point x="527.0" y="149.0"/>
      <point x="373.0" y="149.0" type="curve" smooth="yes"/>
      <point x="208.0" y="149.0" type="line"/>
      <point x="208.0" y="237.0" type="line"/>
      <point x="305.0" y="237.0" type="line" smooth="yes"/>
      <point x="348.0" y="237.0"/>
      <point x="381.0" y="278.0"/>
      <point x="381.0" y="363.0" type="curve" smooth="yes"/>
      <point x="381.0" y="448.0"/>
      <point x="348.0" y="484.0"/>
      <point x="307.0" y="484.0" type="curve" smooth="yes"/>
      <point x="208.0" y="484.0" type="line"/>
      <point x="206.0" y="572.0" type="line"/>
      <point x="377.0" y="572.0" type="line" smooth="yes"/>
      <point x="533.0" y="572.0"/>
      <point x="622.0" y="499.0"/>
    </contour>
  </outline>
</glyph>
<glyph name="eth" format="2">
  <advance width="570"/>
  <unicode hex="00F0"/>
  <outline>
    <contour>
      <point x="356.0" y="414.0" type="line"/>
      <point x="331.0" y="487.0"/>
      <point x="306.0" y="523.0"/>
      <point x="221.0" y="523.0" type="curve" smooth="yes"/>
      <point x="103.0" y="523.0"/>
      <point x="15.0" y="415.0"/>
      <point x="15.0" y="260.0" type="curve" smooth="yes"/>
      <point x="15.0" y="92.0"/>
      <point x="121.0" y="-10.0"/>
      <point x="287.0" y="-10.0" type="curve" smooth="yes"/>
      <point x="446.0" y="-10.0"/>
      <point x="555.0" y="108.0"/>
      <point x="555.0" y="295.0" type="curve" smooth="yes"/>
      <point x="555.0" y="475.0"/>
      <point x="472.0" y="650.0"/>
      <point x="169.0" y="741.0" type="curve"/>
      <point x="132.0" y="673.0" type="line"/>
      <point x="299.0" y="614.0"/>
      <point x="322.0" y="461.0"/>
      <point x="322.0" y="292.0" type="curve" smooth="yes"/>
      <point x="322.0" y="133.0"/>
      <point x="313.0" y="80.0"/>
      <point x="287.0" y="80.0" type="curve" smooth="yes"/>
      <point x="266.0" y="80.0"/>
      <point x="252.0" y="122.0"/>
      <point x="252.0" y="260.0" type="curve" smooth="yes"/>
      <point x="252.0" y="367.0"/>
      <point x="256.0" y="434.0"/>
      <point x="290.0" y="434.0" type="curve" smooth="yes"/>
      <point x="316.0" y="434.0"/>
      <point x="331.0" y="400.0"/>
      <point x="347.0" y="336.0" type="curve"/>
    </contour>
    <contour>
      <point x="112.0" y="585.0" type="line"/>
      <point x="134.0" y="530.0" type="line"/>
      <point x="429.0" y="682.0" type="line"/>
      <point x="406.0" y="737.0" type="line"/>
    </contour>
  </outline>
</glyph>
<glyph name="oslash" format="2">
  <advance width="571"/>
  <unicode hex="00F8"/>
  <anchor x="285" y="513" name="top"/>
  <outline>
    <contour>
      <point x="10.0" y="-12.0" type="line"/>
      <point x="103.0" y="-12.0" type="line"/>
      <point x="562.0" y="523.0" type="line"/>
      <point x="470.0" y="523.0" type="line"/>
    </contour>
    <contour>
      <point x="286.0" y="-10.0" type="curve" smooth="yes"/>
      <point x="457.0" y="-10.0"/>
      <point x="556.0" y="98.0"/>
      <point x="556.0" y="257.0" type="curve" smooth="yes"/>
      <point x="556.0" y="415.0"/>
      <point x="457.0" y="523.0"/>
      <point x="286.0" y="523.0" type="curve" smooth="yes"/>
      <point x="114.0" y="523.0"/>
      <point x="15.0" y="415.0"/>
      <point x="15.0" y="257.0" type="curve" smooth="yes"/>
      <point x="15.0" y="98.0"/>
      <point x="114.0" y="-10.0"/>
    </contour>
    <contour>
      <point x="281.0" y="80.0" type="curve" smooth="yes"/>
      <point x="248.0" y="80.0"/>
      <point x="240.0" y="130.0"/>
      <point x="240.0" y="257.0" type="curve" smooth="yes"/>
      <point x="240.0" y="378.0"/>
      <point x="252.0" y="434.0"/>
      <point x="289.0" y="434.0" type="curve" smooth="yes"/>
      <point x="324.0" y="434.0"/>
      <point x="332.0" y="383.0"/>
      <point x="332.0" y="257.0" type="curve" smooth="yes"/>
      <point x="332.0" y="135.0"/>
      <point x="319.0" y="80.0"/>
    </contour>
  </outline>
</glyph>
<glyph name="Aogonek" format="2">
  <advance width="629"/>
  <unicode hex="0104"/>
  <outline>
    <contour>
      <point x="131.0" y="309.0" type="line"/>
      <point x="116.0" y="223.0" type="line"/>
      <point x="333.0" y="223.0" type="line"/>
      <point x="333.0" y="309.0" type="line"/>
    </contour>
    <contour>
      <point x="420.0" y="63.0" type="line"/>
      <point x="275.0" y="6.0"/>
      <point x="205.0" y="-50.0"/>
      <point x="205.0" y="-137.0" type="curve" smooth="yes"/>
      <point x="205.0" y="-208.0"/>
      <point x="256.0" y="-245.0"/>
      <point x="334.0" y="-245.0" type="curve" smooth="yes"/>
      <point x="409.0" y="-245.0"/>
      <point x="452.0" y="-214.0"/>
      <point x="484.0" y="-169.0" type="curve"/>
      <point x="440.0" y="-120.0" type="line"/>
      <point x="433.0" y="-129.0"/>
      <point x="419.0" y="-148.0"/>
      <point x="396.0" y="-148.0" type="curve" smooth="yes"/>
      <point x="377.0" y="-148.0"/>
      <point x="365.0" y="-135.0"/>
      <point x="365.0" y="-107.0" type="curve" smooth="yes"/>
      <point x="365.0" y="-72.0"/>
      <point x="383.0" y="-28.0"/>
      <point x="459.0" y="14.0" type="curve"/>
    </contour>
    <contour>
      <point x="620.0" y="0.0" type="line"/>
      <point x="620.0" y="77.0" type="line"/>
      <point x="617.0" y="77.0" type="line"/>
      <point x="600.0" y="77.0"/>
      <point x="589.0" y="82.0"/>
      <point x="584.0" y="105.0" type="curve" smooth="yes"/>
      <point x="429.0" y="710.0" type="line"/>
      <point x="195.0" y="710.0" type="line"/>
      <point x="45.0" y="120.0" type="line" smooth="yes"/>
      <point x="37.0" y="86.0"/>
      <point x="29.0" y="77.0"/>
      <point x="13.0" y="77.0" type="curve"/>
      <point x="9.0" y="77.0" type="line"/>
      <point x="9.0" y="0.0" type="line"/>
      <point x="171.0" y="0.0" type="line"/>
      <point x="171.0" y="77.0" type="line"/>
      <point x="162.0" y="77.0" type="line" smooth="yes"/>
      <point x="144.0" y="77.0"/>
      <point x="128.0" y="84.0"/>
      <point x="128.0" y="95.0" type="curve"/>
      <point x="254.0" y="614.0" type="line"/>
      <point x="201.0" y="641.0" type="line"/>
      <point x="358.0" y="0.0" type="line"/>
    </contour>
  </outline>
</glyph>
<glyph name="Schwa" format="2">
  <advance width="661"/>
  <unicode hex="018F"/>
  <outline>
    <contour>
      <point x="312.0" y="720.0" type="curve" smooth="yes"/>
      <point x="164.0" y="720.0"/>
      <point x="81.0" y="639.0"/>
      <point x="35.0" y="537.0" type="curve"/>
      <point x="110.0" y="484.0" type="line"/>
      <point x="142.0" y="551.0"/>
      <point x="190.0" y="626.0"/>
      <point x="269.0" y="626.0" type="curve" smooth="yes"/>
      <point x="364.0" y="626.0"/>
      <point x="385.0" y="533.0"/>
      <point x="385.0" y="357.0" type="curve" smooth="yes"/>
      <point x="385.0" y="155.0"/>
      <point x="371.0" y="84.0"/>
      <point x="334.0" y="84.0" type="curve" smooth="yes"/>
      <point x="298.0" y="84.0"/>
      <point x="285.0" y="134.0"/>
      <point x="282.0" y="336.0" type="curve"/>
      <point x="256.0" y="311.0" type="line"/>
      <point x="524.0" y="311.0" type="line"/>
      <point x="522.0" y="399.0" type="line"/>
      <point x="21.0" y="399.0" type="line"/>
      <point x="21.0" y="126.0"/>
      <point x="127.0" y="-10.0"/>
      <point x="334.0" y="-10.0" type="curve" smooth="yes"/>
      <point x="509.0" y="-10.0"/>
      <point x="641.0" y="139.0"/>
      <point x="641.0" y="357.0" type="curve" smooth="yes"/>
      <point x="641.0" y="580.0"/>
      <point x="522.0" y="720.0"/>
    </contour>
  </outline>
</glyph>
<glyph name="icaron" format="2">
  <advance width="291"/>
  <unicode hex="01D0"/>
  <outline>
    <contour>
      <point x="74.0" y="568.0" type="line"/>
      <point x="-27.0" y="717.0" type="line"/>
      <point x="-27.0" y="742.0" type="line"/>
      <point x="68.0" y="742.0" type="line"/>
      <point x="233.0" y="636.0" type="line"/>
      <point x="90.0" y="636.0" type="line"/>
      <point x="256.0" y="742.0" type="line"/>
      <point x="342.0" y="742.0" type="line"/>
      <point x="342.0" y="717.0" type="line"/>
      <point x="240.0" y="568.0" type="line"/>
    </contour>
    <component base="dotlessi"/>
  </outline>
</glyph>
<glyph name="dotlessj" format="2">
  <advance width="279"/>
  <unicode hex="0237"/>
  <anchor x="150" y="513" name="top"/>
  <outline>
    <contour>
      <point x="28.0" y="-27.0" type="line" smooth="yes"/>
      <point x="28.0" y="-117.0"/>
      <point x="13.0" y="-146.0"/>
      <point x="-21.0" y="-146.0" type="curve" smooth="yes"/>
      <point x="-46.0" y="-146.0"/>
      <point x="-66.0" y="-136.0"/>
      <point x="-82.0" y="-128.0" type="curve"/>
      <point x="-82.0" y="-221.0" type="line"/>
      <point x="-70.0" y="-228.0"/>
      <point x="-27.0" y="-236.0"/>
      <point x="29.0" y="-236.0" type="curve" smooth="yes"/>
      <point x="194.0" y="-236.0"/>
      <point x="260.0" y="-173.0"/>
      <point x="260.0" y="0.0" type="curve" smooth="yes"/>
      <point x="260.0" y="513.0" type="line"/>
      <point x="0.0" y="513.0" type="line"/>
      <point x="0.0" y="438.0" type="line"/>
      <point x="4.0" y="436.0" type="line" smooth="yes"/>
      <point x="15.0" y="430.0"/>
      <point x="28.0" y="425.0"/>
      <point x="28.0" y="407.0" type="curve" smooth="yes"/>
    </contour>
  </outline>
</glyph>
<glyph name="mu" format="2">
  <advance width="693"/>
  <unicode hex="03BC"/>
  <outline>
    <contour>
      <point x="504.0" y="-10.0" type="curve" smooth="yes"/>
      <point x="611.0" y="-10.0"/>
      <point x="661.0" y="52.0"/>
      <point x="684.0" y="131.0" type="curve"/>
      <point x="608.0" y="170.0" type="line"/>
      <point x="599.0" y="130.0"/>
      <point x="592.0" y="106.0"/>
      <point x="575.0" y="106.0" type="curve" smooth="yes"/>
      <point x="559.0" y="106.0"/>
      <point x="556.0" y="117.0"/>
      <point x="556.0" y="143.0" type="curve" smooth="yes"/>
      <point x="556.0" y="513.0" type="line"/>
      <point x="323.0" y="513.0" type="line"/>
      <point x="323.0" y="123.0" type="line"/>
      <point x="333.0" y="127.0" type="line"/>
      <point x="341.0" y="38.0"/>
      <point x="402.0" y="-10.0"/>
    </contour>
    <contour>
      <point x="62.0" y="164.0" type="line"/>
      <point x="95.0" y="33.0"/>
      <point x="151.0" y="-10.0"/>
      <point x="219.0" y="-10.0" type="curve" smooth="yes"/>
      <point x="274.0" y="-10.0"/>
      <point x="314.0" y="35.0"/>
      <point x="344.0" y="136.0" type="curve"/>
      <point x="322.0" y="188.0" type="line"/>
      <point x="313.0" y="138.0"/>
      <point x="301.0" y="106.0"/>
      <point x="283.0" y="106.0" type="curve" smooth="yes"/>
      <point x="268.0" y="106.0"/>
      <point x="264.0" y="126.0"/>
      <point x="264.0" y="169.0" type="curve" smooth="yes"/>
      <point x="264.0" y="513.0" type="line"/>
      <point x="31.0" y="513.0" type="line"/>
      <point x="31.0" y="-250.0" type="line"/>
      <point x="263.0" y="-250.0" type="line"/>
      <point x="263.0" y="-104.0"/>
      <point x="87.0" y="-40.0"/>
      <point x="75.0" y="189.0" type="curve"/>
    </contour>
  </outline>
</glyph>
<glyph name="quoteright" format="2">
  <advance width="227"/>
  <unicode hex="2019"/>
  <outline>
    <contour>
      <point x="97.0" y="339.0" type="line"/>
      <point x="176.0" y="416.0"/>
      <point x="215.0" y="506.0"/>
      <point x="215.0" y="601.0" type="curve" smooth="yes"/>
      <point x="215.0" y="680.0"/>
      <point x="174.0" y="715.0"/>
      <point x="114.0" y="715.0" type="curve" smooth="yes"/>
      <point x="54.0" y="715.0"/>
      <point x="19.0" y="674.0"/>
      <point x="19.0" y="625.0" type="curve" smooth="yes"/>
      <point x="19.0" y="575.0"/>
      <point x="57.0" y="539.0"/>
      <point x="112.0" y="539.0" type="curve" smooth="yes"/>
      <point x="129.0" y="539.0"/>
      <point x="140.0" y="540.0"/>
      <point x="148.0" y="549.0" type="curve"/>
      <point x="123.0" y="575.0" type="line"/>
      <point x="118.0" y="511.0"/>
      <point x="65.0" y="447.0"/>
      <point x="-8.0" y="392.0" type="curve"/>
    </contour>
  </outline>
</glyph>
<glyph name="Euro" format="2">
  <advance width="472"/>
  <unicode hex="20AC"/>
  <outline>
    <contour>
      <point x="7.0" y="316.0" type="line"/>
      <point x="7.0" y="226.0" type="line"/>
      <point x="341.0" y="226.0" type="line"/>
      <point x="341.0" y="316.0" type="line"/>
    </contour>
    <contour>
      <point x="7.0" y="472.0" type="line"/>
      <point x="7.0" y="382.0" type="line"/>
      <point x="373.0" y="382.0" type="line"/>
      <point x="373.0" y="472.0" type="line"/>
    </contour>
    <contour>
      <point x="287.0" y="-10.0" type="curve" smooth="yes"/>
      <point x="395.0" y="-10.0"/>
      <point x="448.0" y="61.0"/>
      <point x="472.0" y="162.0" type="curve"/>
      <point x="395.0" y="204.0" type="line"/>
      <point x="383.0" y="149.0"/>
      <point x="355.0" y="89.0"/>
      <point x="319.0" y="89.0" type="curve" smooth="yes"/>
      <point x="279.0" y="89.0"/>
      <point x="264.0" y="163.0"/>
      <point x="264.0" y="355.0" type="curve" smooth="yes"/>
      <point x="264.0" y="554.0"/>
      <point x="268.0" y="625.0"/>
      <point x="300.0" y="625.0" type="curve" smooth="yes"/>
      <point x="308.0" y="625.0"/>
      <point x="315.0" y="613.0"/>
      <point x="320.0" y="598.0" type="curve"/>
      <point x="348.0" y="613.0"/>
      <point x="358.0" y="629.0"/>
      <point x="302.0" y="643.0" type="curve"/>
      <point x="302.0" y="539.0" type="line"/>
      <point x="463.0" y="539.0" type="line"/>
      <point x="463.0" y="676.0" type="line"/>
      <point x="446.0" y="689.0"/>
      <point x="393.0" y="720.0"/>
      <point x="303.0" y="720.0" type="curve" smooth="yes"/>
      <point x="151.0" y="720.0"/>
      <point x="39.0" y="611.0"/>
      <point x="39.0" y="355.0" type="curve" smooth="yes"/>
      <point x="39.0" y="102.0"/>
      <point x="137.0" y="-10.0"/>
    </contour>
  </outline>
</glyph>
<glyph name="peso" format="2">
  <advance width="471"/>
  <unicode hex="20B1"/>
  <outline>
    <contour>
      <point x="8.0" y="0.0" type="line"/>
      <point x="239.0" y="0.0" type="line"/>
      <point x="239.0" y="77.0" type="line"/>
      <point x="237.0" y="77.0" type="line" smooth="yes"/>
      <point x="219.0" y="77.0"/>
      <point x="212.0" y="79.0"/>
      <point x="212.0" y="86.0" type="curve" smooth="yes"/>
      <point x="212.0" y="206.0" type="line"/>
      <point x="220.0" y="206.0" type="line" smooth="yes"/>
      <point x="369.0" y="206.0"/>
      <point x="444.0" y="298.0"/>
      <point x="444.0" y="465.0" type="curve" smooth="yes"/>
      <point x="444.0" y="627.0"/>
      <point x="377.0" y="710.0"/>
      <point x="237.0" y="710.0" type="curve" smooth="yes"/>
      <point x="8.0" y="710.0" type="line"/>
      <point x="8.0" y="633.0" type="line"/>
      <point x="16.0" y="633.0" type="line" smooth="yes"/>
      <point x="25.0" y="633.0"/>
      <point x="32.0" y="626.0"/>
      <point x="32.0" y="597.0" type="curve" smooth="yes"/>
      <point x="32.0" y="113.0" type="line" smooth="yes"/>
      <point x="32.0" y="84.0"/>
      <point x="25.0" y="77.0"/>
      <point x="16.0" y="77.0" type="curve" smooth="yes"/>
      <point x="8.0" y="77.0" type="line"/>
    </contour>
    <contour>
      <point x="224.0" y="622.0" type="line" smooth="yes"/>
      <point x="245.0" y="622.0"/>
      <point x="262.0" y="597.0"/>
      <point x="262.0" y="461.0" type="curve" smooth="yes"/>
      <point x="262.0" y="325.0"/>
      <point x="245.0" y="294.0"/>
      <point x="226.0" y="294.0" type="curve" smooth="yes"/>
      <point x="212.0" y="294.0" type="line"/>
      <point x="212.0" y="622.0" type="line"/>
    </contour>
    <contour>
      <point x="8.0" y="505.0" type="line"/>
      <point x="8.0" y="424.0" type="line"/>
      <point x="173.0" y="424.0" type="line"/>
      <point x="185.0" y="432.0" type="line"/>
      <point x="339.0" y="432.0" type="line"/>
      <point x="371.0" y="424.0" type="line"/>
      <point x="471.0" y="424.0" type="line"/>
      <point x="471.0" y="505.0" type="line"/>
      <point x="383.0" y="505.0" type="line"/>
      <point x="355.0" y="496.0" type="line"/>
      <point x="164.0" y="496.0" type="line"/>
      <point x="160.0" y="505.0" type="line"/>
    </contour>
  </outline>
</glyph>
<glyph name="product" format="2">
  <advance width="658"/>
  <unicode hex="220F"/>
  <outline>
    <contour>
      <point x="14.0" y="710.0" type="line"/>
      <point x="14.0" y="633.0" type="line"/>
      <point x="23.0" y="633.0" type="line" smooth="yes"/>
      <point x="40.0" y="633.0"/>
      <point x="52.0" y="626.0"/>
      <point x="52.0" y="597.0" type="curve" smooth="yes"/>
      <point x="52.0" y="-110.0" type="line" smooth="yes"/>
      <point x="52.0" y="-139.0"/>
      <point x="40.0" y="-146.0"/>
      <point x="23.0" y="-146.0" type="curve" smooth="yes"/>
      <point x="14.0" y="-146.0" type="line"/>
      <point x="14.0" y="-223.0" type="line"/>
      <point x="300.0" y="-223.0" type="line"/>
      <point x="300.0" y="-146.0" type="line"/>
      <point x="294.0" y="-146.0" type="line" smooth="yes"/>
      <point x="285.0" y="-146.0"/>
      <point x="273.0" y="-143.0"/>
      <point x="273.0" y="-136.0" type="curve" smooth="yes"/>
      <point x="273.0" y="623.0" type="line" smooth="yes"/>
      <point x="273.0" y="630.0"/>
      <point x="290.0" y="633.0"/>
      <point x="303.0" y="633.0" type="curve" smooth="yes"/>
      <point x="355.0" y="633.0" type="line" smooth="yes"/>
      <point x="369.0" y="633.0"/>
      <point x="385.0" y="630.0"/>
      <point x="385.0" y="623.0" type="curve" smooth="yes"/>
      <point x="385.0" y="-136.0" type="line" smooth="yes"/>
      <point x="385.0" y="-143.0"/>
      <point x="374.0" y="-146.0"/>
      <point x="364.0" y="-146.0" type="curve" smooth="yes"/>
      <point x="358.0" y="-146.0" type="line"/>
      <point x="358.0" y="-223.0" type="line"/>
      <point x="644.0" y="-223.0" type="line"/>
      <point x="644.0" y="-146.0" type="line"/>
      <point x="636.0" y="-146.0" type="line" smooth="yes"/>
      <point x="618.0" y="-146.0"/>
      <point x="606.0" y="-139.0"/>
      <point x="606.0" y="-110.0" type="curve" smooth="yes"/>
      <point x="606.0" y="597.0" type="line" smooth="yes"/>
      <point x="606.0" y="626.0"/>
      <point x="618.0" y="633.0"/>
      <point x="636.0" y="633.0" type="curve" smooth="yes"/>
      <point x="644.0" y="633.0" type="line"/>
      <point x="644.0" y="710.0" type="line"/>
    </contour>
  </outline>
</glyph>
<glyph name="summation" format="2">
  <advance width="528"/>
  <unicode hex="2211"/>
  <outline>
    <contour>
      <point x="15.0" y="-223.0" type="line"/>
      <point x="15.0" y="-76.0" type="line"/>
      <point x="303.0" y="313.0" type="line"/>
      <point x="219.0" y="135.0" type="line"/>
      <point x="15.0" y="558.0" type="line"/>
      <point x="15.0" y="710.0" type="line"/>
      <point x="487.0" y="710.0" type="line"/>
      <point x="487.0" y="500.0" type="line"/>
      <point x="406.0" y="500.0" type="line"/>
      <point x="403.0" y="578.0" type="line" smooth="yes"/>
      <point x="401.0" y="614.0"/>
      <point x="371.0" y="621.0"/>
      <point x="335.0" y="621.0" type="curve" smooth="yes"/>
      <point x="94.0" y="621.0" type="line"/>
      <point x="202.0" y="648.0" type="line"/>
      <point x="351.0" y="312.0" type="line"/>
      <point x="351.0" y="251.0" type="line"/>
      <point x="57.0" y="-151.0" type="line"/>
      <point x="91.0" y="-74.0" type="line"/>
      <point x="322.0" y="-74.0" type="line" smooth="yes"/>
      <point x="384.0" y="-74.0"/>
      <point x="407.0" y="-67.0"/>
      <point x="411.0" y="-31.0" type="curve" smooth="yes"/>
      <point x="421.0" y="71.0" type="line"/>
      <point x="504.0" y="71.0" type="line"/>
      <point x="504.0" y="-223.0" type="line"/>
    </contour>
  </outline>
</glyph>
<glyph name="radical" format="2">
  <advance width="621"/>
  <unicode hex="221A"/>
  <outline>
    <contour>
      <point x="32.0" y="330.0" type="line"/>
      <point x="267.0" y="330.0" type="line"/>
      <point x="85.0" y="383.0" type="line"/>
      <point x="205.0" y="0.0" type="line"/>
      <point x="378.0" y="0.0" type="line"/>
      <point x="383.0" y="39.0" type="line"/>
      <point x="263.0" y="422.0" type="line"/>
      <point x="32.0" y="422.0" type="line"/>
    </contour>
    <contour>
      <point x="500.0" y="710.0" type="line"/>
      <point x="301.0" y="0.0" type="line"/>
      <point x="416.0" y="0.0" type="line"/>
      <point x="615.0" y="710.0" type="line"/>
    </contour>
  </outline>
</glyph>
<glyph name="approxequal" format="2">
  <advance width="471"/>
  <unicode hex="2248"/>
  <outline>
    <contour>
      <point x="310.0" y="330.0" type="curve" smooth="yes"/>
      <point x="389.0" y="330.0"/>
      <point x="431.0" y="423.0"/>
      <point x="457.0" y="532.0" type="curve"/>
      <point x="357.0" y="560.0" type="line"/>
      <point x="351.0" y="525.0"/>
      <point x="340.0" y="483.0"/>
      <point x="307.0" y="483.0" type="curve" smooth="yes"/>
      <point x="267.0" y="483.0"/>
      <point x="236.0" y="558.0"/>
      <point x="162.0" y="558.0" type="curve" smooth="yes"/>
      <point x="73.0" y="558.0"/>
      <point x="36.0" y="475.0"/>
      <point x="15.0" y="361.0" type="curve"/>
      <point x="116.0" y="333.0" type="line"/>
      <point x="121.0" y="365.0"/>
      <point x="129.0" y="406.0"/>
      <point x="159.0" y="406.0" type="curve" smooth="yes"/>
      <point x="198.0" y="406.0"/>
      <point x="232.0" y="330.0"/>
    </contour>
    <contour>
      <point x="310.0" y="71.0" type="curve" smooth="yes"/>
      <point x="389.0" y="71.0"/>
      <point x="431.0" y="165.0"/>
      <point x="457.0" y="273.0" type="curve"/>
      <point x="357.0" y="301.0" type="line"/>
      <point x="350.0" y="266.0"/>
      <point x="340.0" y="224.0"/>
      <point x="307.0" y="224.0" type="curve" smooth="yes"/>
      <point x="267.0" y="224.0"/>
      <point x="236.0" y="299.0"/>
      <point x="162.0" y="299.0" type="curve" smooth="yes"/>
      <point x="73.0" y="299.0"/>
      <point x="36.0" y="216.0"/>
      <point x="15.0" y="102.0" type="curve"/>
      <point x="116.0" y="74.0" type="line"/>
      <point x="121.0" y="106.0"/>
      <point x="129.0" y="148.0"/>
      <point x="159.0" y="148.0" type="curve" smooth="yes"/>
      <point x="198.0" y="148.0"/>
      <point x="232.0" y="71.0"/>
    </contour>
  </outline>
</glyph>
<glyph name="zero.den" format="2">
  <advance width="372"/>
  <unicode hex="E402"/>
  <outline>
    <contour>
      <point x="186.0" y="379.0" type="curve" smooth="yes"/>
      <point x="95.0" y="379.0"/>
      <point x="22.0" y="307.0"/>
      <point x="22.0" y="185.0" type="curve" smooth="yes"/>
      <point x="22.0" y="65.0"/>
      <point x="95.0" y="-7.0"/>
      <point x="186.0" y="-7.0" type="curve" smooth="yes"/>
      <point x="278.0" y="-7.0"/>
      <point x="351.0" y="65.0"/>
      <point x="351.0" y="186.0" type="curve" smooth="yes"/>
      <point x="351.0" y="307.0"/>
      <point x="278.0" y="379.0"/>
    </contour>
    <contour>
      <point x="186.0" y="53.0" type="curve" smooth="yes"/>
      <point x="174.0" y="53.0"/>
      <point x="172.0" y="72.0"/>
      <point x="172.0" y="185.0" type="curve" smooth="yes"/>
      <point x="172.0" y="300.0"/>
      <point x="174.0" y="319.0"/>
      <point x="186.0" y="319.0" type="curve" smooth="yes"/>
      <point x="198.0" y="319.0"/>
      <point x="200.0" y="300.0"/>
      <point x="200.0" y="186.0" type="curve" smooth="yes"/>
      <point x="200.0" y="72.0"/>
      <point x="198.0" y="53.0"/>
    </contour>
  </outline>
</glyph>
<glyph name="four.den" format="2">
  <advance width="338"/>
  <unicode hex="E406"/>
  <outline>
    <contour>
      <point x="6.0" y="69.0" type="line"/>
      <point x="325.0" y="69.0" type="line"/>
      <point x="325.0" y="165.0" type="line"/>
      <point x="58.0" y="165.0" type="line"/>
      <point x="37.0" y="115.0" type="line"/>
      <point x="164.0" y="319.0" type="line"/>
      <point x="170.0" y="374.0" type="line"/>
      <point x="134.0" y="374.0" type="line"/>
      <point x="6.0" y="167.0" type="line"/>
    </contour>
    <contour>
      <point x="293.0" y="0.0" type="line"/>
      <point x="293.0" y="374.0" type="line"/>
      <point x="156.0" y="374.0" type="line"/>
      <point x="149.0" y="336.0" type="line"/>
      <point x="149.0" y="0.0" type="line"/>
    </contour>
  </outline>
</glyph>
<glyph name="AE.alt" format="2">
  <advance width="809"/>
  <outline>
    <contour>
      <point x="214.0" y="309.0" type="line"/>
      <point x="170.0" y="224.0" type="line"/>
      <point x="365.0" y="224.0" type="line"/>
      <point x="365.0" y="309.0" type="line"/>
    </contour>
    <contour>
      <point x="311.0" y="0.0" type="line"/>
      <point x="796.0" y="0.0" type="line"/>
      <point x="796.0" y="211.0" type="line"/>
      <point x="697.0" y="211.0" type="line"/>
      <point x="687.0" y="130.0" type="line" smooth="yes"/>
      <point x="682.0" y="94.0"/>
      <point x="660.0" y="87.0"/>
      <point x="598.0" y="87.0" type="curve" smooth="yes"/>
      <point x="595.0" y="87.0" type="line"/>
      <point x="595.0" y="623.0" type="line"/>
      <point x="605.0" y="623.0" type="line" smooth="yes"/>
      <point x="641.0" y="623.0"/>
      <point x="669.0" y="616.0"/>
      <point x="673.0" y="580.0" type="curve" smooth="yes"/>
      <point x="676.0" y="524.0" type="line"/>
      <point x="773.0" y="524.0" type="line"/>
      <point x="773.0" y="710.0" type="line"/>
      <point x="164.0" y="710.0" type="line"/>
      <point x="164.0" y="633.0" type="line"/>
      <point x="183.0" y="633.0" type="line" smooth="yes"/>
      <point x="236.0" y="633.0"/>
      <point x="256.0" y="623.0"/>
      <point x="257.0" y="601.0" type="curve"/>
      <point x="52.0" y="120.0" type="line" smooth="yes"/>
      <point x="38.0" y="88.0"/>
      <point x="23.0" y="77.0"/>
      <point x="8.0" y="77.0" type="curve" smooth="yes"/>
      <point x="4.0" y="77.0" type="line"/>
      <point x="4.0" y="0.0" type="line"/>
      <point x="178.0" y="0.0" type="line"/>
      <point x="178.0" y="77.0" type="line"/>
      <point x="170.0" y="77.0" type="line" smooth="yes"/>
      <point x="152.0" y="77.0"/>
      <point x="140.0" y="84.0"/>
      <point x="140.0" y="95.0" type="curve"/>
      <point x="348.0" y="603.0" type="line"/>
      <point x="348.0" y="603.0" type="line"/>
      <point x="348.0" y="109.0" type="line"/>
      <point x="348.0" y="83.0"/>
      <point x="338.0" y="77.0"/>
      <point x="319.0" y="77.0" type="curve" smooth="yes"/>
      <point x="311.0" y="77.0" type="line"/>
    </contour>
    <contour>
      <point x="532.0" y="408.0" type="line"/>
      <point x="532.0" y="325.0" type="line"/>
      <point x="615.0" y="325.0" type="line"/>
      <point x="640.0" y="325.0"/>
      <point x="647.0" y="302.0"/>
      <point x="647.0" y="277.0" type="curve" smooth="yes"/>
      <point x="647.0" y="271.0" type="line"/>
      <point x="723.0" y="271.0" type="line"/>
      <point x="723.0" y="463.0" type="line"/>
      <point x="647.0" y="463.0" type="line"/>
      <point x="647.0" y="457.0" type="line" smooth="yes"/>
      <point x="647.0" y="431.0"/>
      <point x="640.0" y="408.0"/>
      <point x="615.0" y="408.0" type="curve" smooth="yes"/>
    </contour>
  </outline>
</glyph>
<glyph name="at.uc" format="2">
  <advance width="785"/>
  <outline>
    <contour>
      <point x="399.0" y="23.0" type="curve" smooth="yes"/>
      <point x="229.0" y="23.0"/>
      <point x="110.0" y="123.0"/>
      <point x="110.0" y="313.0" type="curve" smooth="yes"/>
      <point x="110.0" y="501.0"/>
      <point x="244.0" y="648.0"/>
      <point x="427.0" y="648.0" type="curve" smooth="yes"/>
      <point x="592.0" y="648.0"/>
      <point x="674.0" y="555.0"/>
      <point x="674.0" y="412.0" type="curve" smooth="yes"/>
      <point x="674.0" y="281.0"/>
      <point x="625.0" y="201.0"/>
      <point x="593.0" y="201.0" type="curve" smooth="yes"/>
      <point x="579.0" y="201.0"/>
      <point x="581.0" y="215.0"/>
      <point x="585.0" y="250.0" type="curve"/>
      <point x="627.0" y="542.0" type="line"/>
      <point x="477.0" y="542.0" type="line"/>
      <point x="447.0" y="460.0" type="line"/>
      <point x="439.0" y="455.0" type="line"/>
      <point x="406.0" y="220.0" type="line"/>
      <point x="421.0" y="220.0" type="line"/>
      <point x="436.0" y="165.0"/>
      <point x="477.0" y="124.0"/>
      <point x="559.0" y="124.0" type="curve" smooth="yes"/>
      <point x="671.0" y="124.0"/>
      <point x="770.0" y="230.0"/>
      <point x="770.0" y="412.0" type="curve" smooth="yes"/>
      <point x="770.0" y="605.0"/>
      <point x="645.0" y="733.0"/>
      <point x="427.0" y="733.0" type="curve" smooth="yes"/>
      <point x="194.0" y="733.0"/>
      <point x="14.0" y="555.0"/>
      <point x="14.0" y="313.0" type="curve" smooth="yes"/>
      <point x="14.0" y="68.0"/>
      <point x="180.0" y="-62.0"/>
      <point x="399.0" y="-62.0" type="curve" smooth="yes"/>
      <point x="499.0" y="-62.0"/>
      <point x="594.0" y="-34.0"/>
      <point x="655.0" y="1.0" type="curve"/>
      <point x="634.0" y="83.0" type="line"/>
      <point x="568.0" y="48.0"/>
      <point x="491.0" y="23.0"/>
    </contour>
    <contour>
      <point x="331.0" y="118.0" type="curve" smooth="yes"/>
      <point x="406.0" y="118.0"/>
      <point x="437.0" y="182.0"/>
      <point x="480.0" y="292.0" type="curve"/>
      <point x="453.0" y="345.0" type="line"/>
      <point x="418.0" y="251.0"/>
      <point x="395.0" y="198.0"/>
      <point x="374.0" y="198.0" type="curve" smooth="yes"/>
      <point x="355.0" y="198.0"/>
      <point x="349.0" y="227.0"/>
      <point x="349.0" y="283.0" type="curve" smooth="yes"/>
      <point x="349.0" y="373.0"/>
      <point x="371.0" y="468.0"/>
      <point x="407.0" y="468.0" type="curve" smooth="yes"/>
      <point x="431.0" y="468.0"/>
      <point x="442.0" y="437.0"/>
      <point x="460.0" y="354.0" type="curve"/>
      <point x="485.0" y="401.0" type="line"/>
      <point x="465.0" y="510.0"/>
      <point x="444.0" y="548.0"/>
      <point x="370.0" y="548.0" type="curve" smooth="yes"/>
      <point x="251.0" y="548.0"/>
      <point x="172.0" y="419.0"/>
      <point x="172.0" y="298.0" type="curve" smooth="yes"/>
      <point x="172.0" y="181.0"/>
      <point x="243.0" y="118.0"/>
    </contour>
  </outline>
</glyph>
<glyph name="breve_hook.uc" format="2">
  <advance width="419"/>
  <anchor x="204" y="724" name="_top"/>
  <outline>
    <contour>
      <point x="100.0" y="1006.0" type="line"/>
      <point x="103.0" y="1049.0"/>
      <point x="134.0" y="1090.0"/>
      <point x="222.0" y="1090.0" type="curve" smooth="yes"/>
      <point x="299.0" y="1090.0"/>
      <point x="340.0" y="1061.0"/>
      <point x="340.0" y="1013.0" type="curve" smooth="yes"/>
      <point x="340.0" y="957.0"/>
      <point x="299.0" y="937.0"/>
      <point x="234.0" y="931.0" type="curve"/>
      <point x="258.0" y="956.0" type="line"/>
      <point x="258.0" y="909.0" type="line"/>
      <point x="172.0" y="909.0" type="line"/>
      <point x="172.0" y="967.0" type="line"/>
      <point x="216.0" y="970.0"/>
      <point x="233.0" y="983.0"/>
      <point x="233.0" y="1007.0" type="curve"/>
      <point x="233.0" y="1023.0"/>
      <point x="227.0" y="1032.0"/>
      <point x="213.0" y="1032.0" type="curve" smooth="yes"/>
      <point x="201.0" y="1032.0"/>
      <point x="193.0" y="1023.0"/>
      <point x="191.0" y="1006.0" type="curve"/>
    </contour>
    <contour>
      <point x="210.0" y="758.0" type="curve" smooth="yes"/>
      <point x="129.0" y="758.0"/>
      <point x="63.0" y="801.0"/>
      <point x="59.0" y="900.0" type="curve"/>
      <point x="158.0" y="900.0" type="line"/>
      <point x="160.0" y="861.0"/>
      <point x="180.0" y="850.0"/>
      <point x="213.0" y="850.0" type="curve" smooth="yes"/>
      <point x="246.0" y="850.0"/>
      <point x="265.0" y="861.0"/>
      <point x="268.0" y="900.0" type="curve"/>
      <point x="362.0" y="900.0" type="line"/>
      <point x="358.0" y="801.0"/>
      <point x="291.0" y="758.0"/>
    </contour>
  </outline>
</glyph>
<glyph name="circumflex_hook.uc" format="2">
  <advance width="429"/>
  <anchor x="189" y="694" name="_top"/>
  <outline>
    <contour>
      <point x="323.0" y="940.0" type="line"/>
      <point x="326.0" y="983.0"/>
      <point x="356.0" y="1024.0"/>
      <point x="444.0" y="1024.0" type="curve" smooth="yes"/>
      <point x="521.0" y="1024.0"/>
      <point x="561.0" y="995.0"/>
      <point x="561.0" y="946.0" type="curve" smooth="yes"/>
      <point x="561.0" y="891.0"/>
      <point x="520.0" y="869.0"/>
      <point x="456.0" y="863.0" type="curve"/>
      <point x="480.0" y="890.0" type="line"/>
      <point x="480.0" y="840.0" type="line"/>
      <point x="395.0" y="840.0" type="line"/>
      <point x="395.0" y="900.0" type="line"/>
      <point x="439.0" y="903.0"/>
      <point x="455.0" y="917.0"/>
      <point x="455.0" y="941.0" type="curve"/>
      <point x="455.0" y="957.0"/>
      <point x="450.0" y="966.0"/>
      <point x="435.0" y="966.0" type="curve" smooth="yes"/>
      <point x="423.0" y="966.0"/>
      <point x="414.0" y="956.0"/>
      <point x="412.0" y="940.0" type="curve"/>
    </contour>
    <component base="circumflex.uc"/>
  </outline>
</glyph>
<glyph name="f.alt" format="2">
  <advance width="389"/>
  <outline>
    <contour>
      <point x="-6.0" y="513.0" type="line"/>
      <point x="-6.0" y="432.0" type="line"/>
      <point x="379.0" y="432.0" type="line"/>
      <point x="379.0" y="513.0" type="line"/>
    </contour>
    <contour>
      <point x="323.0" y="663.0" type="curve" smooth="yes"/>
      <point x="338.0" y="663.0"/>
      <point x="349.0" y="652.0"/>
      <point x="351.0" y="641.0" type="curve"/>
      <point x="374.0" y="643.0"/>
      <point x="372.0" y="687.0"/>
      <point x="335.0" y="689.0" type="curve"/>
      <point x="335.0" y="579.0" type="line"/>
      <point x="487.0" y="579.0" type="line"/>
      <point x="487.0" y="715.0" type="line"/>
      <point x="449.0" y="730.0"/>
      <point x="378.0" y="748.0"/>
      <point x="298.0" y="748.0" type="curve" smooth="yes"/>
      <point x="154.0" y="748.0"/>
      <point x="48.0" y="692.0"/>
      <point x="48.0" y="543.0" type="curve" smooth="yes"/>
      <point x="48.0" y="102.0" type="line" smooth="yes"/>
      <point x="48.0" y="81.0"/>
      <point x="38.0" y="72.0"/>
      <point x="19.0" y="72.0" type="curve" smooth="yes"/>
      <point x="9.0" y="72.0" type="line"/>
      <point x="9.0" y="0.0" type="line"/>
      <point x="329.0" y="0.0" type="line"/>
      <point x="329.0" y="72.0" type="line"/>
      <point x="322.0" y="72.0" type="line" smooth="yes"/>
      <point x="305.0" y="72.0"/>
      <point x="279.0" y="74.0"/>
      <point x="279.0" y="80.0" type="curve" smooth="yes"/>
      <point x="279.0" y="555.0" type="line" smooth="yes"/>
      <point x="279.0" y="631.0"/>
      <point x="287.0" y="663.0"/>
    </contour>
  </outline>
</glyph>
<glyph name="f_f.alt" format="2">
  <advance width="690"/>
  <outline>
    <contour>
      <point x="-6.0" y="513.0" type="line"/>
      <point x="-6.0" y="432.0" type="line"/>
      <point x="376.0" y="432.0" type="line"/>
      <point x="376.0" y="513.0" type="line"/>
    </contour>
    <contour>
      <point x="294.0" y="513.0" type="line"/>
      <point x="294.0" y="432.0" type="line"/>
      <point x="679.0" y="432.0" type="line"/>
      <point x="679.0" y="513.0" type="line"/>
    </contour>
    <contour>
      <point x="349.0" y="80.0" type="line" smooth="yes"/>
      <point x="349.0" y="74.0"/>
      <point x="337.0" y="72.0"/>
      <point x="336.0" y="72.0" type="curve" smooth="yes"/>
      <point x="334.0" y="72.0" type="line"/>
      <point x="334.0" y="0.0" type="line"/>
      <point x="630.0" y="0.0" type="line"/>
      <point x="630.0" y="72.0" type="line"/>
      <point x="622.0" y="72.0" type="line" smooth="yes"/>
      <point x="605.0" y="72.0"/>
      <point x="579.0" y="74.0"/>
      <point x="579.0" y="80.0" type="curve" smooth="yes"/>
      <point x="579.0" y="555.0" type="line" smooth="yes"/>
      <point x="579.0" y="631.0"/>
      <point x="588.0" y="663.0"/>
      <point x="623.0" y="663.0" type="curve" smooth="yes"/>
      <point x="639.0" y="663.0"/>
      <point x="649.0" y="652.0"/>
      <point x="651.0" y="641.0" type="curve"/>
      <point x="674.0" y="643.0"/>
      <point x="673.0" y="687.0"/>
      <point x="636.0" y="689.0" type="curve"/>
      <point x="636.0" y="579.0" type="line"/>
      <point x="788.0" y="579.0" type="line"/>
      <point x="788.0" y="715.0" type="line"/>
      <point x="750.0" y="730.0"/>
      <point x="678.0" y="748.0"/>
      <point x="598.0" y="748.0" type="curve" smooth="yes"/>
      <point x="454.0" y="748.0"/>
      <point x="349.0" y="692.0"/>
      <point x="349.0" y="543.0" type="curve" smooth="yes"/>
    </contour>
    <contour>
      <point x="9.0" y="0.0" type="line"/>
      <point x="302.0" y="0.0" type="line"/>
      <point x="302.0" y="72.0" type="line"/>
      <point x="300.0" y="72.0" type="line" smooth="yes"/>
      <point x="285.0" y="72.0"/>
      <point x="279.0" y="74.0"/>
      <point x="279.0" y="80.0" type="curve" smooth="yes"/>
      <point x="279.0" y="543.0" type="line"/>
      <point x="279.0" y="619.0"/>
      <point x="287.0" y="651.0"/>
      <point x="326.0" y="651.0" type="curve" smooth="yes"/>
      <point x="356.0" y="651.0"/>
      <point x="366.0" y="633.0"/>
      <point x="366.0" y="603.0" type="curve"/>
      <point x="364.0" y="653.0"/>
      <point x="386.0" y="676.0"/>
      <point x="349.0" y="674.0" type="curve"/>
      <point x="349.0" y="543.0" type="line"/>
      <point x="456.0" y="576.0" type="line"/>
      <point x="476.0" y="699.0" type="line"/>
      <point x="454.0" y="717.0"/>
      <point x="390.0" y="736.0"/>
      <point x="303.0" y="736.0" type="curve" smooth="yes"/>
      <point x="162.0" y="736.0"/>
      <point x="48.0" y="681.0"/>
      <point x="48.0" y="531.0" type="curve" smooth="yes"/>
      <point x="48.0" y="102.0" type="line" smooth="yes"/>
      <point x="48.0" y="81.0"/>
      <point x="38.0" y="72.0"/>
      <point x="19.0" y="72.0" type="curve" smooth="yes"/>
      <point x="9.0" y="72.0" type="line"/>
    </contour>
  </outline>
</glyph>
<glyph name="four.lintab" format="2">
  <advance width="471"/>
  <outline>
    <contour>
      <point x="171.0" y="0.0" type="line"/>
      <point x="462.0" y="0.0" type="line"/>
      <point x="462.0" y="77.0" type="line"/>
      <point x="455.0" y="77.0" type="line" smooth="yes"/>
      <point x="439.0" y="77.0"/>
      <point x="426.0" y="84.0"/>
      <point x="426.0" y="113.0" type="curve" smooth="yes"/>
      <point x="426.0" y="710.0" type="line"/>
      <point x="232.0" y="710.0" type="line"/>
      <point x="216.0" y="619.0" type="line"/>
      <point x="216.0" y="113.0" type="line" smooth="yes"/>
      <point x="216.0" y="84.0"/>
      <point x="204.0" y="77.0"/>
      <point x="183.0" y="77.0" type="curve" smooth="yes"/>
      <point x="171.0" y="77.0" type="line"/>
    </contour>
    <contour>
      <point x="16.0" y="176.0" type="line"/>
      <point x="468.0" y="176.0" type="line"/>
      <point x="468.0" y="319.0" type="line"/>
      <point x="101.0" y="319.0" type="line"/>
      <point x="65.0" y="241.0" type="line"/>
      <point x="247.0" y="629.0" type="line"/>
      <point x="258.0" y="710.0" type="line"/>
      <point x="201.0" y="710.0" type="line"/>
      <point x="16.0" y="321.0" type="line"/>
    </contour>
  </outline>
</glyph>
<glyph name="hook.uc" format="2">
  <advance width="430"/>
  <anchor x="183" y="679" name="_top"/>
  <outline>
    <contour>
      <point x="86.0" y="857.0" type="line"/>
      <point x="90.0" y="910.0"/>
      <point x="128.0" y="961.0"/>
      <point x="223.0" y="961.0" type="curve" smooth="yes"/>
      <point x="305.0" y="961.0"/>
      <point x="352.0" y="930.0"/>
      <point x="352.0" y="873.0" type="curve" smooth="yes"/>
      <point x="352.0" y="805.0"/>
      <point x="300.0" y="786.0"/>
      <point x="210.0" y="782.0" type="curve"/>
      <point x="256.0" y="809.0" type="line"/>
      <point x="256.0" y="745.0" type="line"/>
      <point x="161.0" y="745.0" type="line"/>
      <point x="161.0" y="817.0" type="line"/>
      <point x="220.0" y="820.0"/>
      <point x="236.0" y="832.0"/>
      <point x="236.0" y="861.0" type="curve" smooth="yes"/>
      <point x="236.0" y="881.0"/>
      <point x="227.0" y="893.0"/>
      <point x="210.0" y="893.0" type="curve" smooth="yes"/>
      <point x="191.0" y="893.0"/>
      <point x="181.0" y="878.0"/>
      <point x="179.0" y="857.0" type="curve"/>
    </contour>
  </outline>
</glyph>
<glyph name="nine.lintab" format="2">
  <advance width="471"/>
  <outline>
    <contour>
      <point x="51.0" y="72.0" type="line"/>
      <point x="170.0" y="90.0"/>
      <point x="251.0" y="200.0"/>
      <point x="251.0" y="435.0" type="curve" smooth="yes"/>
      <point x="251.0" y="592.0"/>
      <point x="249.0" y="634.0"/>
      <point x="238.0" y="634.0" type="curve" smooth="yes"/>
      <point x="225.0" y="634.0"/>
      <point x="222.0" y="591.0"/>
      <point x="222.0" y="494.0" type="curve" smooth="yes"/>
      <point x="222.0" y="412.0"/>
      <point x="221.0" y="364.0"/>
      <point x="244.0" y="364.0" type="curve" smooth="yes"/>
      <point x="258.0" y="364.0"/>
      <point x="270.0" y="399.0"/>
      <point x="285.0" y="448.0" type="curve"/>
      <point x="289.0" y="376.0" type="line"/>
      <point x="277.0" y="329.0"/>
      <point x="251.0" y="278.0"/>
      <point x="178.0" y="278.0" type="curve" smooth="yes"/>
      <point x="77.0" y="278.0"/>
      <point x="9.0" y="351.0"/>
      <point x="9.0" y="488.0" type="curve" smooth="yes"/>
      <point x="9.0" y="632.0"/>
      <point x="97.0" y="720.0"/>
      <point x="233.0" y="720.0" type="curve" smooth="yes"/>
      <point x="382.0" y="720.0"/>
      <point x="463.0" y="629.0"/>
      <point x="463.0" y="426.0" type="curve" smooth="yes"/>
      <point x="463.0" y="181.0"/>
      <point x="299.0" y="11.0"/>
      <point x="63.0" y="-14.0" type="curve"/>
    </contour>
  </outline>
</glyph>
<glyph name="nine.midprop" format="2">
  <advance width="542"/>
  <outline>
    <contour>
      <point x="59.0" y="-18.0" type="line"/>
      <point x="226.0" y="14.0"/>
      <point x="313.0" y="117.0"/>
      <point x="313.0" y="337.0" type="curve" smooth="yes"/>
      <point x="313.0" y="489.0"/>
      <point x="298.0" y="533.0"/>
      <point x="273.0" y="533.0" type="curve" smooth="yes"/>
      <point x="244.0" y="533.0"/>
      <point x="230.0" y="492.0"/>
      <point x="230.0" y="399.0" type="curve" smooth="yes"/>
      <point x="230.0" y="317.0"/>
      <point x="233.0" y="263.0"/>
      <point x="272.0" y="263.0" type="curve" smooth="yes"/>
      <point x="295.0" y="263.0"/>
      <point x="314.0" y="298.0"/>
      <point x="338.0" y="347.0" type="curve"/>
      <point x="341.0" y="277.0" type="line"/>
      <point x="328.0" y="229.0"/>
      <point x="288.0" y="177.0"/>
      <point x="207.0" y="177.0" type="curve" smooth="yes"/>
      <point x="91.0" y="177.0"/>
      <point x="16.0" y="254.0"/>
      <point x="16.0" y="391.0" type="curve" smooth="yes"/>
      <point x="16.0" y="536.0"/>
      <point x="128.0" y="619.0"/>
      <point x="274.0" y="619.0" type="curve" smooth="yes"/>
      <point x="432.0" y="619.0"/>
      <point x="524.0" y="531.0"/>
      <point x="524.0" y="335.0" type="curve" smooth="yes"/>
      <point x="524.0" y="93.0"/>
      <point x="356.0" y="-66.0"/>
      <point x="71.0" y="-104.0" type="curve"/>
    </contour>
  </outline>
</glyph>
<glyph name="one.oldprop" format="2">
  <advance width="455"/>
  <outline>
    <contour>
      <point x="364.0" y="122.0" type="curve" smooth="yes"/>
      <point x="364.0" y="548.0" type="line"/>
      <point x="171.0" y="548.0" type="line"/>
      <point x="143.0" y="500.0"/>
      <point x="116.0" y="472.0"/>
      <point x="26.0" y="471.0" type="curve"/>
      <point x="26.0" y="352.0" type="line"/>
      <point x="98.0" y="351.0"/>
      <point x="135.0" y="376.0"/>
      <point x="160.0" y="460.0" type="curve"/>
      <point x="142.0" y="452.0" type="line"/>
      <point x="142.0" y="122.0" type="line" smooth="yes"/>
      <point x="142.0" y="84.0"/>
      <point x="97.0" y="77.0"/>
      <point x="53.0" y="77.0" type="curve"/>
      <point x="41.0" y="77.0" type="line"/>
      <point x="41.0" y="0.0" type="line"/>
      <point x="450.0" y="0.0" type="line"/>
      <point x="450.0" y="77.0" type="line"/>
      <point x="444.0" y="77.0" type="line" smooth="yes"/>
      <point x="404.0" y="77.0"/>
      <point x="364.0" y="84.0"/>
    </contour>
  </outline>
</glyph>
<glyph name="ringhalfright" format="2">
  <advance width="421"/>
  <anchor x="198" y="566" name="_top"/>
  <outline>
    <contour>
      <point x="211.0" y="772.0" type="line"/>
      <point x="286.0" y="772.0"/>
      <point x="339.0" y="736.0"/>
      <point x="339.0" y="663.0" type="curve" smooth="yes"/>
      <point x="339.0" y="590.0"/>
      <point x="286.0" y="554.0"/>
      <point x="211.0" y="554.0" type="curve"/>
      <point x="211.0" y="617.0" type="line"/>
      <point x="226.0" y="617.0"/>
      <point x="236.0" y="632.0"/>
      <point x="236.0" y="663.0" type="curve" smooth="yes"/>
      <point x="236.0" y="695.0"/>
      <point x="225.0" y="709.0"/>
      <point x="211.0" y="709.0" type="curve"/>
    </contour>
  </outline>
</glyph>
<glyph name="six.oldprop" format="2">
  <advance width="529"/>
  <outline>
    <contour>
      <point x="443.0" y="654.0" type="line"/>
      <point x="317.0" y="618.0"/>
      <point x="230.0" y="493.0"/>
      <point x="230.0" y="286.0" type="curve" smooth="yes"/>
      <point x="230.0" y="122.0"/>
      <point x="245.0" y="76.0"/>
      <point x="268.0" y="76.0" type="curve" smooth="yes"/>
      <point x="290.0" y="76.0"/>
      <point x="298.0" y="125.0"/>
      <point x="298.0" y="229.0" type="curve" smooth="yes"/>
      <point x="298.0" y="313.0"/>
      <point x="294.0" y="367.0"/>
      <point x="261.0" y="367.0" type="curve" smooth="yes"/>
      <point x="240.0" y="367.0"/>
      <point x="220.0" y="331.0"/>
      <point x="199.0" y="283.0" type="curve"/>
      <point x="196.0" y="353.0" type="line"/>
      <point x="209.0" y="400.0"/>
      <point x="248.0" y="453.0"/>
      <point x="325.0" y="453.0" type="curve" smooth="yes"/>
      <point x="434.0" y="453.0"/>
      <point x="512.0" y="377.0"/>
      <point x="512.0" y="237.0" type="curve" smooth="yes"/>
      <point x="512.0" y="82.0"/>
      <point x="416.0" y="-10.0"/>
      <point x="273.0" y="-10.0" type="curve" smooth="yes"/>
      <point x="121.0" y="-10.0"/>
      <point x="19.0" y="83.0"/>
      <point x="19.0" y="295.0" type="curve" smooth="yes"/>
      <point x="19.0" y="513.0"/>
      <point x="188.0" y="697.0"/>
      <point x="431.0" y="740.0" type="curve"/>
    </contour>
  </outline>
</glyph>
<glyph name="two.oldtab" format="2">
  <advance width="471"/>
  <outline>
    <contour>
      <point x="448.0" y="0.0" type="line"/>
      <point x="17.0" y="0.0" type="line"/>
      <point x="17.0" y="164.0" type="line"/>
      <point x="138.0" y="234.0"/>
      <point x="240.0" y="266.0"/>
      <point x="240.0" y="396.0" type="curve" smooth="yes"/>
      <point x="240.0" y="448.0"/>
      <point x="231.0" y="468.0"/>
      <point x="208.0" y="468.0" type="curve" smooth="yes"/>
      <point x="186.0" y="468.0"/>
      <point x="168.0" y="446.0"/>
      <point x="159.0" y="422.0" type="curve"/>
      <point x="154.0" y="429.0"/>
      <point x="158.0" y="476.0"/>
      <point x="186.0" y="479.0" type="curve"/>
      <point x="186.0" y="355.0" type="line"/>
      <point x="27.0" y="355.0" type="line"/>
      <point x="27.0" y="486.0" type="line"/>
      <point x="69.0" y="522.0"/>
      <point x="140.0" y="558.0"/>
      <point x="236.0" y="558.0" type="curve" smooth="yes"/>
      <point x="386.0" y="558.0"/>
      <point x="454.0" y="497.0"/>
      <point x="454.0" y="392.0" type="curve" smooth="yes"/>
      <point x="454.0" y="225.0"/>
      <point x="261.0" y="180.0"/>
      <point x="113.0" y="129.0" type="curve"/>
      <point x="94.0" y="117.0"/>
      <point x="90.0" y="142.0"/>
      <point x="100.0" y="144.0" type="curve"/>
      <point x="448.0" y="144.0" type="line"/>
    </contour>
  </outline>
</glyph>
<glyph name="uni20B4.proportional" format="2">
  <advance width="551"/>
  <outline>
    <contour>
      <point x="35.0" y="469.0" type="line"/>
      <point x="35.0" y="392.0" type="line"/>
      <point x="515.0" y="392.0" type="line"/>
      <point x="515.0" y="469.0" type="line"/>
    </contour>
    <contour>
      <point x="35.0" y="332.0" type="line"/>
      <point x="35.0" y="256.0" type="line"/>
      <point x="515.0" y="256.0" type="line"/>
      <point x="515.0" y="332.0" type="line"/>
    </contour>
    <contour>
      <point x="291.0" y="-10.0" type="curve" smooth="yes"/>
      <point x="387.0" y="-10.0"/>
      <point x="461.0" y="27.0"/>
      <point x="501.0" y="57.0" type="curve"/>
      <point x="501.0" y="197.0" type="line"/>
      <point x="368.0" y="197.0" type="line"/>
      <point x="368.0" y="86.0" type="line"/>
      <point x="403.0" y="83.0"/>
      <point x="408.0" y="140.0"/>
      <point x="397.0" y="143.0" type="curve"/>
      <point x="375.0" y="109.0"/>
      <point x="355.0" y="84.0"/>
      <point x="311.0" y="84.0" type="curve" smooth="yes"/>
      <point x="273.0" y="84.0"/>
      <point x="253.0" y="113.0"/>
      <point x="253.0" y="161.0" type="curve" smooth="yes"/>
      <point x="253.0" y="214.0"/>
      <point x="301.0" y="272.0"/>
      <point x="399.0" y="288.0" type="curve"/>
      <point x="139.0" y="295.0" type="line"/>
      <point x="93.0" y="274.0"/>
      <point x="61.0" y="230.0"/>
      <point x="61.0" y="169.0" type="curve" smooth="yes"/>
      <point x="61.0" y="59.0"/>
      <point x="133.0" y="-10.0"/>
    </contour>
    <contour>
      <point x="195.0" y="449.0" type="curve"/>
      <point x="419.0" y="432.0" type="line"/>
      <point x="469.0" y="461.0"/>
      <point x="488.0" y="502.0"/>
      <point x="488.0" y="560.0" type="curve" smooth="yes"/>
      <point x="488.0" y="649.0"/>
      <point x="427.0" y="720.0"/>
      <point x="273.0" y="720.0" type="curve" smooth="yes"/>
      <point x="158.0" y="720.0"/>
      <point x="93.0" y="680.0"/>
      <point x="75.0" y="661.0" type="curve"/>
      <point x="75.0" y="541.0" type="line"/>
      <point x="198.0" y="541.0" type="line"/>
      <point x="198.0" y="641.0" type="line"/>
      <point x="168.0" y="644.0"/>
      <point x="167.0" y="593.0"/>
      <point x="183.0" y="581.0" type="curve"/>
      <point x="199.0" y="610.0"/>
      <point x="224.0" y="626.0"/>
      <point x="250.0" y="626.0" type="curve" smooth="yes"/>
      <point x="280.0" y="626.0"/>
      <point x="298.0" y="601.0"/>
      <point x="298.0" y="563.0" type="curve" smooth="yes"/>
      <point x="298.0" y="505.0"/>
      <point x="252.0" y="471.0"/>
    </contour>
  </outline>
</glyph>
<glyph name="zero.slashold" format="2">
  <advance width="471"/>
  <outline>
    <contour>
      <point x="246.0" y="79.0" type="curve" smooth="yes"/>
      <point x="214.0" y="79.0"/>
      <point x="212.0" y="118.0"/>
      <point x="212.0" y="273.0" type="curve" smooth="yes"/>
      <point x="212.0" y="429.0"/>
      <point x="212.0" y="468.0"/>
      <point x="235.0" y="468.0" type="curve" smooth="yes"/>
      <point x="259.0" y="468.0"/>
      <point x="259.0" y="429.0"/>
      <point x="259.0" y="273.0" type="curve" smooth="yes"/>
      <point x="259.0" y="118.0"/>
      <point x="261.0" y="79.0"/>
    </contour>
    <contour>
      <point x="144.0" y="103.0" type="line"/>
      <point x="324.0" y="347.0" type="line"/>
      <point x="327.0" y="443.0" type="line"/>
      <point x="149.0" y="199.0" type="line"/>
    </contour>
    <contour>
      <point x="235.0" y="-11.0" type="curve" smooth="yes"/>
      <point x="369.0" y="-11.0"/>
      <point x="465.0" y="97.0"/>
      <point x="465.0" y="273.0" type="curve" smooth="yes"/>
      <point x="465.0" y="450.0"/>
      <point x="369.0" y="558.0"/>
      <point x="235.0" y="558.0" type="curve" smooth="yes"/>
      <point x="101.0" y="558.0"/>
      <point x="6.0" y="450.0"/>
      <point x="6.0" y="273.0" type="curve" smooth="yes"/>
      <point x="6.0" y="97.0"/>
      <point x="101.0" y="-11.0"/>
    </contour>
  </outline>
</glyph>
